<?xml version="1.0" encoding="utf-8"?>
<!-- Generator: Adobe Illustrator 23.0.1, SVG Export Plug-In . SVG Version: 6.00 Build 0)  -->
<svg version="1.1" id="图层_1" xmlns="http://www.w3.org/2000/svg" xmlns:xlink="http://www.w3.org/1999/xlink" x="0px" y="0px"
	 viewBox="0 0 1200 1800" style="enable-background:new 0 0 1200 1800;" xml:space="preserve">
<style type="text/css">
	.st0{fill:#AB1F24;stroke:#4A1B0F;stroke-width:7;stroke-linecap:round;stroke-linejoin:round;stroke-miterlimit:10;}
	.st1{fill:none;stroke:#000000;stroke-width:7;stroke-linecap:round;stroke-linejoin:round;stroke-miterlimit:10;}
	.st2{fill:#481A0E;}
</style>
<rect x="231.8" y="514.91" transform="matrix(0.7071 0.7071 -0.7071 0.7071 804.4045 -167.3573)" class="st0" width="744.83" height="744.83"/>
<rect x="231.8" y="514.31" transform="matrix(0.7071 0.7071 -0.7071 0.7071 803.9803 -167.533)" class="st1" width="744.83" height="744.83"/>
<path d="M486.13,664.18c0,0,9.23-3.18,12.72,10.57c3.49,13.75,10.9,25.65,18.7,30.96c7.8,5.31,20.78,4.27,6.12,18.81
	c0,0-2.46,1.85-5.38,3.75c-2.95,5.63-23.04,40.66-37.21,57.79c-4.96,7.82-14.76,21.17,8.41,16.22
	c23.17-4.95,54.27-13.32,54.27-13.32s34.5-6.98,19.97,18.14c-68.44,101.85-108.24,193.53-108.24,193.53s0.21,3.74,3.02,0.21
	c2.8-3.54,68.41-118.4,68.41-118.4s2.75-9.6,11.11-5.77c3.38,1.63,3.27,3.25,2.93,4.86s-1.04,5.06-1.03,8.32
	c0.01,3.26,6.02,154.87,16.02,182.61c1.55,4.56,2.46,22.1-13.72,23.56c-13.47-0.68-17.16-11.57-17.17-25.13s0.35-138.91,0.35-138.91
	l0.02-27.73c0,0-0.79-2.15-2.5-0.87c-1.72,1.28-71.62,124.47-71.62,124.47l-16.68,25.9c0,0-16.66,15.41-29.1-3.84
	c-7.9-17.55-2.88-29.56,4.63-30.45c7.23-3.47,36.76-47.14,36.76-47.14s109.65-162.66,112.8-168.04c3.16-5.38,2.48-19.41-28.15-4.25
	s-75.79,38.43-75.79,38.43s-29.62,14.07-36.34-3.64c-1.89-4.98-3.42-12.2,4.69-22.3c6.91-8.6,20.81-19.3,47.43-32.5
	c40.02-33.32,42.72-51.32,42.72-51.32s2.51-6.12-8.15-3.58c-11.65-0.09-57.77-0.43-38.58-42.71
	C472.92,672.29,480.76,665.52,486.13,664.18z"/>
<path d="M547.05,899.16c0,0-8.75-11.78,3.56-4.42c12.32,7.36,40.65,29.33,58.54,61.07c10.23,17.47,0.8,29.42-11.81,29.73
	c-12.61,0.31-19.7-14.62-20.6-24.01c-0.9-9.38-3.59-21.22-9.14-30.84C563.79,925.08,547.05,899.16,547.05,899.16z"/>
<path d="M599.13,677.14c0,0-3.23-14.2,8.52-8.74c11.58,1.75,15.84,0.13,23.08-1.33c14.63-1.83,17.84-7.08,91.93-3.9
	c15.31,1.04,9.67,24.58-2.98,16.39c-1.12-4.09-30.75-4.7-50.03,2.38c-12.44,4.75-31.88,16.48-49.11,16.24
	C603.31,697.93,601.77,693.17,599.13,677.14z"/>
<path class="st2" d="M611.1,668.35"/>
<path class="st2" d="M616.37,666.41"/>
<path d="M630.39,726.63c0,0-20.1,12.31-24.4,25.22c-2.32,6.68-0.61,13.48,6.2,13.94c5.88,0.4,6.35,13.95,6.35,13.95l5.29,137.08
	c0,0,0.17,15.86,9.74,18.99c7.49,1.78,12.62-5.05,12.69-10.63s-0.5-29.26-0.5-29.26l-0.41-140.33c0,0,1.88-3.47,2.71-8.09
	c1.08-6.03,0.37-14.02-8.63-18.85C635.26,725.87,632.65,725.15,630.39,726.63z"/>
<path d="M661.56,739.15c0,0,37.3-16.42,80.62-13.79c33.63,3.53,18.4,31.08,12.53,39.69c-5.87,8.61-87.2,85.12-101.3,118.96
	c-1.49,3.63,0.49,6.56,2.71,5.78s6.51,4.75-3.55,6.57c-6.77,1.16-8.79,1.29-8.79,1.29s-2.73-10.13,1.11-16.39
	c3.84-6.26,19.7-29.23,34.28-47.23c6.78-7.61,64.07-74.09,64.07-74.09s2.79-18.15-30.04-6.09c-29.54,9.49-38.26,9.95-35.29,9.29
	c3.9-0.47-4.13,1.04-8.52,4.51c-6.98,6.67-12.88,6.89-12.44,0.4c-0.51-1.9-1.67-6.65-5.16-10.6c-3.49-3.96-9.22-2.05-9.22-2.05
	l3.77-5.16C646.35,750.24,653.25,742.32,661.56,739.15z"/>
<path d="M612.71,939.98c0,0,4.35,8.06-1.2,39.38c-5.55,31.32-3.66,104.16,9.14,121.49s38.46,1.06,38.46,1.06
	s50.47-31.03,79.44-38.73c24.33-6.47,57.83-7.55,57.83-7.55s17.09-22.9-5.56-23.28c-22.66-0.39-77.41,11.43-84.57,16.22
	c-10.23,4.28-47.13,26-47.13,26s-20.65,6.68-26.46-17.65c-5.8-24.32-7.67-79.14-7.67-97.47s-9.1-26.1-9.1-26.1
	S609.87,932.64,612.71,939.98z"/>
<path d="M625.49,925.37c11.14-11.36,0.96-3.72,20.75-16.05s101.16-55.11,138.29-48.25c19.17,5.95,20.64,16.31,20.64,16.31
	s11.77,101.16-5.57,177.98c-2.25,14.76-4.97,28.79-8.7,27.37c-3.72-1.41-12.23-3.32-15.12-13.15c-2.89-9.83,3.07-45.16,3.07-45.16
	s14.07-118.05,9.08-133.62s-24.25-11.04-32.8-8.64c57.38-16.14-125.63,63.63-108.1,50.78c-12.39,10.25-25.44,15.34-25.44,15.34
	S614.35,936.73,625.49,925.37z"/>
<path d="M645.78,998.81c0,0,3.61,1.8,6.19,0.42s25.3-11.02,25.3-11.02l69.56-31.39c0,0,22.32,16.48-14.97,39.43
	c-18.29,13.05-24.21,6.77-24.21,6.77l0.4,44.46l-29.3,15.1l0.02-18.64l-17.43,23.36l-19.87-4.77l35.65-39.05l0.58-23.18l-21.28,7
	c0,0-11.37,2.65-10.99-2.92C645.04,1000.62,644.15,999.94,645.78,998.81z"/>
<path d="M680.44,923.15c0,0-5.48-1.6-5.49,3.07s-1.41,7.05,4.1,17.37c1.58,4.14,0.52,10.6,0.52,10.6l-2.4,47.97l28.42-23.83
	l-0.21-28.92c0,0,3.24-6.1-3.16-12.69S680.44,923.15,680.44,923.15z"/>
</svg>
