<?xml version="1.0" encoding="UTF-8"?>
<svg width="566px" height="923px" viewBox="0 0 566 923" version="1.1" xmlns="http://www.w3.org/2000/svg" xmlns:xlink="http://www.w3.org/1999/xlink">
    <title>人物组件/女/坐/演讲</title>
    <defs>
        <polygon id="path-1" points="0.102 0.717 120.865 0.717 120.865 116.8776 0.102 116.8776"></polygon>
        <polygon id="path-3" points="0.38564727 0.804 60.9451004 0.804 60.9451004 62 0.38564727 62"></polygon>
        <polygon id="path-5" points="0.338 26.363 87.791 40.207 159.036 18.796 87.007 0.134"></polygon>
        <polygon id="path-7" points="0.573 20.057 64.088 30.111 115.833 14.559 62.021 0.889"></polygon>
        <polygon id="path-9" points="0.391 4.876 88.062 18.591 89.573 13.803 0.32 0.393"></polygon>
        <path d="M50.736,0.638 L50.663,0.657 L0.679,18.983 C0.484,19.054 0.385,19.269 0.456,19.464 L0.456,19.464 C0.518,19.634 0.691,19.732 0.863,19.706 L0.863,19.706 L0.936,19.687 L50.921,1.362 C51.116,1.291 51.215,1.075 51.144,0.88 L51.144,0.88 C51.088,0.728 50.945,0.634 50.792,0.634 L50.792,0.634 C50.773,0.634 50.755,0.635 50.736,0.638 L50.736,0.638 Z" id="path-11"></path>
        <path d="M57.111,0.975 L57.037,0.992 L1.147,20.428 C0.952,20.496 0.848,20.709 0.916,20.905 L0.916,20.905 C0.976,21.077 1.147,21.177 1.32,21.154 L1.32,21.154 L1.394,21.136 L57.284,1.7 C57.479,1.633 57.583,1.419 57.514,1.223 L57.514,1.223 C57.461,1.068 57.316,0.972 57.161,0.972 L57.161,0.972 C57.145,0.972 57.128,0.973 57.111,0.975 L57.111,0.975 Z" id="path-13"></path>
        <path d="M42.488,0.189 L42.415,0.207 L0.439,16.263 C0.245,16.336 0.148,16.553 0.222,16.747 L0.222,16.747 C0.286,16.916 0.461,17.011 0.633,16.983 L0.633,16.983 L0.707,16.963 L42.682,0.909 C42.876,0.834 42.973,0.617 42.898,0.424 L42.898,0.424 C42.842,0.275 42.699,0.183 42.549,0.183 L42.549,0.183 C42.528,0.183 42.508,0.185 42.488,0.189 L42.488,0.189 Z" id="path-15"></path>
        <path d="M42.989,0.337 L42.915,0.356 L0.939,16.409 C0.745,16.484 0.648,16.701 0.723,16.893 L0.723,16.893 C0.788,17.063 0.961,17.158 1.134,17.129 L1.134,17.129 L1.207,17.11 L43.183,1.057 C43.376,0.983 43.473,0.766 43.399,0.573 L43.399,0.573 C43.342,0.424 43.2,0.332 43.05,0.332 L43.05,0.332 C43.029,0.332 43.009,0.333 42.989,0.337 L42.989,0.337 Z" id="path-17"></path>
        <path d="M42.609,0.144 L42.537,0.164 L0.561,16.217 C0.367,16.291 0.271,16.508 0.344,16.701 L0.344,16.701 C0.409,16.871 0.583,16.965 0.755,16.937 L0.755,16.937 L0.829,16.917 L42.805,0.864 C42.998,0.79 43.095,0.574 43.021,0.38 L43.021,0.38 C42.964,0.23 42.821,0.139 42.67,0.139 L42.67,0.139 C42.65,0.139 42.63,0.141 42.609,0.144 L42.609,0.144 Z" id="path-19"></path>
        <path d="M0.543,0.63 C0.521,0.81 0.63,0.976 0.795,1.031 L0.795,1.031 L0.869,1.048 L55.222,7.755 C55.427,7.78 55.614,7.634 55.64,7.428 L55.64,7.428 C55.662,7.249 55.553,7.083 55.388,7.027 L55.388,7.027 L55.314,7.011 L0.961,0.304 C0.945,0.302 0.93,0.301 0.915,0.301 L0.915,0.301 C0.728,0.301 0.567,0.44 0.543,0.63 L0.543,0.63 Z" id="path-21"></path>
        <path d="M0.6,0.379 C0.577,0.559 0.686,0.725 0.852,0.78 L0.852,0.78 L0.926,0.797 L55.278,7.503 C55.484,7.529 55.672,7.383 55.696,7.178 L55.696,7.178 C55.718,6.997 55.61,6.832 55.444,6.776 L55.444,6.776 L55.37,6.759 L1.017,0.053 C1.002,0.051 0.986,0.05 0.971,0.05 L0.971,0.05 C0.785,0.05 0.623,0.189 0.6,0.379 L0.6,0.379 Z" id="path-23"></path>
        <path d="M0.652,1.021 C0.63,1.202 0.74,1.366 0.904,1.422 L0.904,1.422 L0.978,1.439 L55.331,8.146 C55.537,8.171 55.723,8.025 55.749,7.819 L55.749,7.819 C55.772,7.639 55.662,7.474 55.497,7.418 L55.497,7.418 L55.423,7.402 L1.07,0.695 C1.054,0.693 1.039,0.692 1.024,0.692 L1.024,0.692 C0.837,0.692 0.675,0.831 0.652,1.021 L0.652,1.021 Z" id="path-25"></path>
        <polygon id="path-27" points="26.115 15.264 0.132 135.593 4.063 135.936 71.491 114.751 98.741 0.765"></polygon>
        <path d="M96.659,0.344 L27.768,14.193 C27.013,14.345 26.419,14.93 26.255,15.682 L26.255,15.682 L0.202,135.942 L71.309,113.636 C71.958,113.432 72.453,112.902 72.612,112.239 L72.612,112.239 L98.925,2.695 C99.223,1.45 98.263,0.304 97.05,0.304 L97.05,0.304 C96.922,0.304 96.791,0.317 96.659,0.344 L96.659,0.344 Z" id="path-29"></path>
    </defs>
    <g id="人物组件/女/坐/演讲" stroke="none" stroke-width="1" fill="none" fill-rule="evenodd">
        <g id="编组" transform="translate(100.000000, 173.000000)">
            <g transform="translate(3.000000, 0.283000)">
                <path d="M175.6122,336.4786 L37.7792,337.251732 C33.4022,337.2766 29.8332,333.7476 29.809068,329.3706 C29.7842,324.9926 33.3132,321.4236 37.6912,321.3986 L175.5232,320.625478 C179.9012,320.6016 183.4692,324.1296 183.494332,328.5076 C183.5192,332.8856 179.9902,336.4546 175.6122,336.4786" id="Fill-1" fill="#91A8EA"></path>
                <path d="M142.5746,542.0885 L72.9166,542.479581 C70.3436,542.4945 68.2466,540.4205 68.2315295,537.8475 C68.2176,535.2745 70.2916,533.1775 72.8646,533.1625 L142.5226,532.772419 C145.0956,532.7575 147.1926,534.8315 147.206681,537.4035 C147.2216,539.9765 145.1476,542.0745 142.5746,542.0885" id="Fill-3" fill="#91A8EA"></path>
                <polygon id="Fill-5" fill="#5369AB" points="115.5609 532.923 100.0179 533.01 98.9169 336.909 114.4599 336.822"></polygon>
                <g transform="translate(51.000000, 0.000000)">
                    <mask id="mask-2" fill="white">
                        <use xlink:href="#path-1"></use>
                    </mask>
                    <g id="Clip-8"></g>
                    <path d="M0.102,116.8776 C0.102,116.8776 14.037,108.0586 24.103,48.8446 C25.922,38.1436 27.955,29.8216 29.884,23.4436 C33.244,12.3396 42.26,3.9306 53.492,1.4606 C72.225,-2.6584 90.246,10.8076 91.858,30.1046 C94.56,62.4306 101.751,105.4606 120.865,112.6726 C93.876,112.2926 0.102,116.8776 0.102,116.8776" id="Fill-7" fill="#6B0003" mask="url(#mask-2)"></path>
                </g>
                <path d="M275.3764,389.6734 C275.2924,389.2344 292.1964,498.8294 292.7494,506.7694 C294.2604,528.4384 292.0014,531.5884 303.8494,536.5284 C306.8834,537.7944 311.1964,535.8194 316.2064,540.7684 C329.9204,554.3194 349.0724,561.1824 350.8454,552.7174 C351.8264,544.8354 320.1324,522.1754 316.0314,506.3184 C311.7714,489.8464 314.2844,357.9504 302.2934,349.2914 C290.3034,340.6344 273.0334,298.2834 275.3764,389.6734" id="Fill-9" fill="#FFAE92"></path>
                <path d="M296.6552,539.837 C296.6552,539.837 291.7722,528.652 293.1742,514.072 C293.1742,514.072 303.7952,521.982 312.8882,531.152 C323.3912,541.738 325.7932,542.146 325.7932,542.146 C338.3062,545.14 340.5882,537.864 340.5882,537.864 C340.5882,537.864 347.8552,546.079 361.0832,554.552 C372.9272,562.139 329.2302,566.892 322.4752,556.13 C315.7212,545.371 307.3762,539.389 307.3762,539.389 L305.0912,556.566 L300.9092,556.736 L296.6552,539.837 Z" id="Fill-11" fill="#87272C"></path>
                <path d="M145.3666,253.0826 C145.3666,253.0826 273.9856,264.3226 306.3936,279.3346 C327.7916,289.2466 341.1916,493.9306 341.1916,493.9306 L275.1606,501.3056 L255.4036,325.2906 L101.2096,321.5186 L145.3666,253.0826 Z" id="Fill-13" fill="#81181A"></path>
                <path d="M188.2528,389.8649 C188.2798,389.4179 177.5818,499.7919 176.1558,507.6229 C172.2668,528.9929 169.2988,531.4869 179.5588,539.2019 C182.1868,541.1779 186.8538,540.3299 190.4858,546.3629 C200.4268,562.8819 217.2898,574.2639 221.0988,566.5009 C223.9968,559.1049 198.8838,529.3169 198.8278,512.9379 C198.7698,495.9249 233.7918,368.7389 224.3128,357.3859 C214.8328,346.0339 208.5628,300.7289 188.2528,389.8649" id="Fill-15" fill="#FFAE92"></path>
                <g transform="translate(171.000000, 514.000000)">
                    <mask id="mask-4" fill="white">
                        <use xlink:href="#path-3"></use>
                    </mask>
                    <g id="Clip-18"></g>
                    <path d="M0.7709,26.63 C0.7709,26.63 -1.1971,14.585 3.7629,0.804 C3.7629,0.804 12.1009,11.093 18.6459,22.225 C26.2079,35.078 28.4349,36.067 28.4349,36.067 C39.8209,42.059 43.8299,35.572 43.8299,35.572 C43.8299,35.572 48.8409,45.329 59.5649,56.808 C69.1679,67.086 25.6509,60.894 21.7649,48.797 C17.8789,36.703 11.2699,28.845 11.2699,28.845 L4.8119,44.924 L0.7179,44.056 L0.7709,26.63 Z" id="Fill-17" fill="#87272C" mask="url(#mask-4)"></path>
                </g>
                <path d="M238.5175,275.4044 C227.3985,268.4454 220.1925,267.0834 160.9485,255.1944 C160.8105,252.7284 159.5135,233.6884 159.5135,233.6884 L60.5475,232.2234 L52.8455,261.7604 C52.8455,261.7604 38.1405,314.7524 94.1375,320.7884 C150.6325,326.8794 182.0905,321.6694 182.0905,321.6694 L158.3145,492.2444 L232.4165,500.2224 C232.4165,500.2224 256.1065,286.4134 238.5175,275.4044" id="Fill-19" fill="#A53739"></path>
                <path d="M292.703,134.713 C292.702,135.487 291.734,138.445 291.679,138.689 C285.062,134.574 274.584,127.827 273.391,127.146 C273.698,126.58 287.191,75.437 290.532,75.042 C293.871,74.655 292.108,89.349 292.028,94.722 C294.431,94.908 296.239,96.678 296.75,98.348 C298.946,97.054 300.847,99.642 301.494,101.811 C301.912,102.663 303.187,102.919 305.356,106.191 C306.49,110.35 296.94,129.828 292.703,134.713" id="Fill-21" fill="#FFAE92"></path>
                <path d="M278.1767,113.2457 C278.1767,113.2457 290.2917,92.9567 290.6987,92.1025881 C293.7167,92.0747 294.0977,97.3027 287.6757,108.6127 C289.1777,113.2037 290.1147,114.7317 288.0777,121.6207" id="Stroke-23" stroke="#F17E55" stroke-width="0.995"></path>
                <path d="M289.9828,107.4376 C289.9828,107.4376 288.2878,115.6686 293.5318,115.4766 C294.6208,110.3556 296.9208,98.3366 296.9208,98.3366 L294.0638,112.9126 C294.0638,112.9126 293.4478,117.9966 297.8408,117.1366 C298.2478,115.0886 301.0128,102.3876 301.0128,102.3876 L298.3418,114.7476 C298.3418,114.7476 298.2008,119.6876 301.9748,118.3846" id="Stroke-25" stroke="#F17E55" stroke-width="0.995"></path>
                <path d="M292.0107,137.7633 C292.0107,137.7633 256.1327,239.6563 225.4157,242.8263 C205.0247,244.9303 164.1717,174.2803 164.1717,174.2803 C179.8237,165.9913 193.8177,160.3233 211.2597,152.1103 C211.2597,152.1103 228.1597,185.9933 230.7257,186.1923 C258.5057,148.7373 260.6237,148.8793 273.3907,127.1463 C277.6037,129.5093 292.0107,137.7633 292.0107,137.7633" id="Fill-27" fill="#FFAE92"></path>
                <path d="M160.1571,197.4659 C160.1091,233.6789 158.7201,215.9749 159.9311,245.2839 C111.7671,245.2839 107.0231,246.1599 57.9031,245.1199 C61.3651,220.2259 63.9881,207.5059 64.6711,197.4659 C60.9481,192.8859 57.7401,188.1959 55.9581,183.2059 C55.1571,180.9859 54.6421,178.7159 54.4931,176.3659 C34.1171,172.3209 13.9041,168.9759 0.0321,166.0039 C8.1791,146.3009 19.0021,128.9749 29.8851,115.4329 C40.7671,101.8919 110.5681,87.6159 110.5681,87.6159 C110.5681,87.6159 166.4631,92.6359 179.4821,104.4459 C194.2231,117.8259 212.2321,153.7659 212.2321,153.7659 L172.5821,172.4359 C174.1851,185.3359 167.3651,191.5559 160.1571,197.4659" id="Fill-29" fill="#F17E55"></path>
                <path d="M168.9062,151.6569 C168.9062,151.6569 173.9462,163.8109 172.5822,172.4359 C174.4312,171.5649 180.7032,168.6119 180.7032,168.6119 L168.9062,151.6569 Z" id="Fill-31" fill="#EF683F"></path>
                <path d="M168.3842,150.2355 C168.3842,150.2355 183.6922,181.9045 160.1572,197.4655" id="Stroke-33" stroke="#A03717" stroke-width="0.995" stroke-linecap="round"></path>
                <path d="M64.6674,197.463 C64.6674,197.463 55.9584,188.822 54.4934,176.366" id="Stroke-35" stroke="#A03717" stroke-width="0.995" stroke-linecap="round"></path>
                <path d="M134.4955,98.5714 C135.7845,95.9124 135.9055,93.0824 135.4175,90.8134 C121.8285,88.6314 110.5675,87.6194 110.5675,87.6194 C110.5675,87.6194 95.2375,91.3344 78.1725,96.0444 L81.2525,98.0084 C81.8925,98.4164 97.1095,108.0004 113.2805,108.0004 C114.8545,108.0004 116.4095,107.9074 117.9015,107.7254 C126.4765,106.6764 132.0605,103.5974 134.4955,98.5714" id="Fill-37" fill="#FFFFFF"></path>
                <path d="M141.9159,46.7384 C140.7139,43.6764 137.7609,39.3554 136.5869,35.8134 C135.4139,32.2724 131.3409,15.2584 129.7679,11.7584 C121.1779,13.9704 95.7059,21.2994 95.7059,21.2994 L99.1909,38.3214 C99.1909,38.3214 96.5349,34.1724 90.3999,35.9604 C86.7219,36.9514 85.2499,47.1074 93.7029,53.8884 C93.7119,55.3184 98.4849,83.4094 83.3669,94.6254 C83.3669,94.6254 100.8589,105.7794 117.4259,103.7544 C133.9919,101.7294 132.1989,92.1624 130.9929,90.1294 C126.4579,85.1964 123.1349,74.5854 122.7629,68.6224 C128.0559,69.6294 141.6809,70.1014 138.9339,49.2654 C139.9499,48.7204 141.1019,47.9054 141.9159,46.7384" id="Fill-39" fill="#FFAE92"></path>
                <path d="M122.7626,68.6227 C122.7626,68.6227 115.3916,67.0467 111.1676,61.7097 C116.0086,71.5807 120.4226,77.4427 124.8136,78.3497 C123.8366,75.0247 123.0796,72.6667 122.7626,68.6227" id="Fill-41" fill="#FF7D65"></path>
                <path d="M99.1908,38.3214 C99.1908,38.3214 126.6168,30.3904 117.9908,2.8724 C94.8488,5.9604 90.1608,15.9114 99.1908,38.3214" id="Fill-43" fill="#6B0003"></path>
                <path d="M114.7602,7.5455 C114.7602,7.5455 121.5172,26.7255 137.3212,26.5535 C132.6352,10.5165 129.6922,7.3145 114.7602,7.5455" id="Fill-45" fill="#6B0003"></path>
            </g>
            <g transform="translate(100.000000, 244.283000)">
                <mask id="mask-6" fill="white">
                    <use xlink:href="#path-5"></use>
                </mask>
                <g id="Clip-48"></g>
                <polygon id="Fill-47" fill="#BAC9E5" mask="url(#mask-6)" points="-4.661 45.206 164.037 45.206 164.037 -4.866 -4.661 -4.866"></polygon>
            </g>
            <g transform="translate(127.000000, 248.283000)">
                <mask id="mask-8" fill="white">
                    <use xlink:href="#path-7"></use>
                </mask>
                <g id="Clip-50"></g>
                <polygon id="Fill-49" fill="#4E5C93" mask="url(#mask-8)" points="-4.427 35.111 120.833 35.111 120.833 -4.112 -4.427 -4.112"></polygon>
            </g>
            <g transform="translate(100.000000, 270.283000)">
                <mask id="mask-10" fill="white">
                    <use xlink:href="#path-9"></use>
                </mask>
                <g id="Clip-52"></g>
                <polygon id="Fill-51" fill="#253368" mask="url(#mask-10)" points="-4.679 23.591 94.574 23.591 94.574 -4.607 -4.679 -4.607"></polygon>
            </g>
            <g transform="translate(150.000000, 252.283000)">
                <mask id="mask-12" fill="white">
                    <use xlink:href="#path-11"></use>
                </mask>
                <g id="Clip-54"></g>
                <polygon id="Fill-53" fill="#BAC9E5" mask="url(#mask-12)" points="-4.568 24.71 56.167 24.71 56.167 -4.366 -4.568 -4.366"></polygon>
            </g>
            <g transform="translate(137.000000, 249.283000)">
                <mask id="mask-14" fill="white">
                    <use xlink:href="#path-13"></use>
                </mask>
                <g id="Clip-56"></g>
                <polygon id="Fill-55" fill="#BAC9E5" mask="url(#mask-14)" points="-4.104 26.157 62.536 26.157 62.536 -4.029 -4.104 -4.029"></polygon>
            </g>
            <g transform="translate(159.000000, 257.283000)">
                <mask id="mask-16" fill="white">
                    <use xlink:href="#path-15"></use>
                </mask>
                <g id="Clip-58"></g>
                <polygon id="Fill-57" fill="#BAC9E5" mask="url(#mask-16)" points="-4.803 21.988 47.923 21.988 47.923 -4.817 -4.803 -4.817"></polygon>
            </g>
            <g transform="translate(170.000000, 258.283000)">
                <mask id="mask-18" fill="white">
                    <use xlink:href="#path-17"></use>
                </mask>
                <g id="Clip-60"></g>
                <polygon id="Fill-59" fill="#BAC9E5" mask="url(#mask-18)" points="-4.302 22.135 48.424 22.135 48.424 -4.669 -4.302 -4.669"></polygon>
            </g>
            <g transform="translate(181.000000, 260.283000)">
                <mask id="mask-20" fill="white">
                    <use xlink:href="#path-19"></use>
                </mask>
                <g id="Clip-62"></g>
                <polygon id="Fill-61" fill="#BAC9E5" mask="url(#mask-20)" points="-4.681 21.942 48.046 21.942 48.046 -4.861 -4.681 -4.861"></polygon>
            </g>
            <g transform="translate(137.000000, 265.283000)">
                <mask id="mask-22" fill="white">
                    <use xlink:href="#path-21"></use>
                </mask>
                <g id="Clip-64"></g>
                <polygon id="Fill-63" fill="#BAC9E5" mask="url(#mask-22)" points="-4.46 12.758 60.643 12.758 60.643 -4.699 -4.46 -4.699"></polygon>
            </g>
            <g transform="translate(149.000000, 261.283000)">
                <mask id="mask-24" fill="white">
                    <use xlink:href="#path-23"></use>
                </mask>
                <g id="Clip-66"></g>
                <polygon id="Fill-65" fill="#BAC9E5" mask="url(#mask-24)" points="-4.404 12.507 60.699 12.507 60.699 -4.95 -4.404 -4.95"></polygon>
            </g>
            <g transform="translate(174.000000, 250.283000)">
                <mask id="mask-26" fill="white">
                    <use xlink:href="#path-25"></use>
                </mask>
                <g id="Clip-68"></g>
                <polygon id="Fill-67" fill="#BAC9E5" mask="url(#mask-26)" points="-4.351 13.149 60.752 13.149 60.752 -4.308 -4.351 -4.308"></polygon>
            </g>
            <g transform="translate(188.000000, 153.283000)">
                <mask id="mask-28" fill="white">
                    <use xlink:href="#path-27"></use>
                </mask>
                <g id="Clip-70"></g>
                <polygon id="Fill-69" fill="#253368" mask="url(#mask-28)" points="-4.867 140.936 103.741 140.936 103.741 -4.235 -4.867 -4.235"></polygon>
            </g>
            <g transform="translate(192.000000, 153.283000)">
                <mask id="mask-30" fill="white">
                    <use xlink:href="#path-29"></use>
                </mask>
                <g id="Clip-72"></g>
                <polygon id="Fill-71" fill="#4E5C93" mask="url(#mask-30)" points="-4.797 140.942 103.98 140.942 103.98 -4.696 -4.797 -4.696"></polygon>
            </g>
            <g transform="translate(0.000000, 166.283000)">
                <path d="M7.6269,0.9454 C7.6269,0.9454 -8.2021,53.4054 5.7479,67.7024 C25.3459,87.7874 116.2409,92.8334 116.2409,92.8334 L121.6049,70.2584 L46.6789,42.5444 L57.4939,10.3664 L7.6269,0.9454 Z" id="Fill-73" fill="#FFAE92"></path>
                <path d="M111.1708,87.9645 C114.0068,98.5595 137.6068,94.9625 137.6068,94.9625 L149.1748,104.3815 C151.0058,105.6445 151.7928,104.4105 152.7898,104.6395 C155.4778,105.2495 156.1208,102.4265 156.1208,102.4265 C157.1458,102.1985 158.4788,103.2465 159.4618,100.7855 C159.4618,100.7855 161.3748,101.0795 162.0278,98.8255 C162.2728,97.9865 158.5798,86.6415 156.3758,80.0015 C155.4058,77.0855 152.8848,74.9675 149.8458,74.5105 L121.6048,70.2585 C121.6048,70.2585 107.3538,73.7085 111.1708,87.9645" id="Fill-75" fill="#FFAE92"></path>
                <path d="M135.9232,87.4493 C135.5362,87.2843 135.0892,87.4643 134.9232,87.8503 C134.7752,88.1993 134.9052,88.5963 135.2152,88.7933 L135.3252,88.8503 L143.6322,92.3973 L151.9432,103.8383 C152.1632,104.1413 152.5632,104.2343 152.8892,104.0773 L153.0072,104.0073 C153.3092,103.7873 153.4022,103.3873 153.2462,103.0613 L153.1752,102.9433 L144.7412,91.3333 C144.6882,91.2593 144.6212,91.1953 144.5452,91.1453 L144.4242,91.0803 L135.9232,87.4493 Z" id="Fill-77" fill="#F17E55"></path>
                <path d="M141.6068,83.9576 C141.2408,83.7506 140.7758,83.8806 140.5698,84.2476 C140.3838,84.5776 140.4698,84.9866 140.7568,85.2156 L140.8598,85.2846 L148.4888,89.5806 L155.2588,101.4236 C155.4468,101.7526 155.8418,101.8886 156.1858,101.7596 L156.2978,101.7076 C156.6268,101.5196 156.7628,101.1236 156.6338,100.7796 L156.5818,100.6676 L149.7068,88.6426 C149.6608,88.5626 149.6018,88.4926 149.5318,88.4346 L149.4188,88.3566 L141.6068,83.9576 Z" id="Fill-79" fill="#F17E55"></path>
                <path d="M147.12,80.733 C146.79,80.472 146.311,80.527 146.05,80.858 C145.818,81.151 145.836,81.562 146.075,81.833 L146.175,81.927 L151.309,85.989 L157.489,98.704 C157.654,99.044 158.04,99.206 158.391,99.101 L158.507,99.056 C158.847,98.89 159.009,98.504 158.904,98.153 L158.859,98.038 L152.602,85.166 C152.568,85.098 152.525,85.035 152.474,84.979 L152.39,84.902 L147.12,80.733 Z" id="Fill-81" fill="#F17E55"></path>
            </g>
        </g>
    </g>
</svg>